# xmcd
#
# Track frame offsets:
# 150
# 14107
# 28940
# 48187
# 64402
# 80360
# 97860
# 112955
# 127220
# 142525
# 156232
#
# Disc length: 2261 seconds
#
#
# Revision: 3
# Processed by: cddbd v1.5.1PL0 Copyright (c) Steve Scherf et al.
# Submitted via: FreeRIP 2.70 
#
DISCID=8e08d30b
DTITLE=Joe Diffie - Third Rock From The Sun
DYEAR=1994
DGENRE=Country
TTITLE0=Third Rock From The Sun
TTITLE1=I'm In Love With A Capital "U"
TTITLE2=That Road Not Taken
TTITLE3=Pickup Man
TTITLE4=So Help Me Girl
TTITLE5=Wild Blue Yonder
TTITLE6=I'd Like To Have A Problem Like That
TTITLE7=Junior's In Love
TTITLE8=From Here On Out
TTITLE9=Good Brown Gravy
TTITLE10=The Cows Came Home
EXTD=
EXTT0=
EXTT1=
EXTT2=
EXTT3=
EXTT4=
EXTT5=
EXTT6=
EXTT7=
EXTT8=
EXTT9=
EXTT10=
PLAYORDER=
